<svg id="visual" viewBox="0 0 900 600" width="900" height="600" xmlns="http://www.w3.org/2000/svg" xmlns:xlink="http://www.w3.org/1999/xlink" version="1.1"><rect x="0" y="0" width="900" height="600" fill="#002347"></rect><defs><linearGradient id="grad1_0" x1="33.3%" y1="0%" x2="100%" y2="100%"><stop offset="20%" stop-color="#002347" stop-opacity="1"></stop><stop offset="80%" stop-color="#002347" stop-opacity="1"></stop></linearGradient></defs><defs><linearGradient id="grad2_0" x1="0%" y1="0%" x2="66.7%" y2="100%"><stop offset="20%" stop-color="#002347" stop-opacity="1"></stop><stop offset="80%" stop-color="#002347" stop-opacity="1"></stop></linearGradient></defs><g transform="translate(900, 0)"><path d="M0 405.6C-57.5 404.3 -115 403 -155.2 374.7C-195.5 346.5 -218.5 291.3 -251 251C-283.5 210.8 -325.6 185.5 -352.9 146.2C-380.3 106.8 -392.9 53.4 -405.6 0L0 0Z" fill="#4FACF7"></path></g><g transform="translate(0, 600)"><path d="M0 -405.6C53.4 -400.7 106.8 -395.7 155.2 -374.7C203.7 -353.8 247.1 -316.8 274.4 -274.4C301.6 -231.9 312.5 -184 331.7 -137.4C350.8 -90.7 378.2 -45.4 405.6 0L0 0Z" fill="#4FACF7"></path></g></svg>